<?xml version="1.0" encoding="utf-8"?>
<!-- Generator: Adobe Illustrator 18.1.1, SVG Export Plug-In . SVG Version: 6.00 Build 0)  -->
<svg version="1.1" id="Layer_1" xmlns="http://www.w3.org/2000/svg" xmlns:xlink="http://www.w3.org/1999/xlink" x="0px" y="0px"
	 viewBox="-466 1895.6 506.6 210.4" enable-background="new -466 1895.6 506.6 210.4" xml:space="preserve">
<g>
	<path fill="#6D6E71" d="M-77.3,1946.7v-14.4c0-0.3-0.2-0.5-0.5-0.5h-23.5c-0.3,0-0.5,0.2-0.5,0.5v15.4c0,0.3,0.2,0.5,0.5,0.5
		l23.5-1C-77.5,1947.2-77.3,1947-77.3,1946.7z"/>
	<polyline fill="#808285" points="-85.9,1931.5 -85.8,1932.2 -85.8,1928 -93.2,1928 -93.2,1932.3 -85.8,1932.2 	"/>
	<polyline fill="#808285" points="-338.2,1929.2 -338.3,1929.9 -338.3,1925.8 -330.9,1925.8 -330.9,1930 -338.3,1929.9 	"/>
	<path fill="#6D6E71" d="M-346.8,1944.6v-14.4c0-0.2,0.2-0.4,0.4-0.4h23.5c0.2,0,0.4,0.2,0.4,0.4v15.5c0,0.2-0.2,0.4-0.5,0.4
		l-23.5-1C-346.6,1945-346.8,1944.8-346.8,1944.6z"/>
	<path fill="#E6E7E8" d="M-329.4,1918.4l104.3,4.2c0,0,2.1,0.9-2.1,1.3l-83.6,0.9l-19-4.9L-329.4,1918.4z"/>
	<path fill="#58595B" d="M-330.1,1926.3h-9c-0.2,0-0.4-0.2-0.4-0.4v-4.1c0-0.2,0.2-0.4,0.4-0.4h9c0.2,0,0.4,0.2,0.4,0.4v4.1
		C-329.6,1926.1-329.8,1926.3-330.1,1926.3z"/>
	<path fill="#BCBEC0" d="M-337.5,1917.8c0,0-18.4-3.1-25.9-2.8l-76.9-0.7c0,0-3.3-0.3-2.6,1.1l82.5,12.4c0,0,8.4,0.9,12.3-1.3
		l11.9-4.9L-337.5,1917.8z"/>
	<path fill="#808285" d="M-329.9,1921.8h-9.3c-1,0-1.8-0.8-1.8-1.8v-1.1c0-1,0.8-1.8,1.8-1.8h9.3c1,0,1.8,0.8,1.8,1.8v1.1
		C-328.2,1921-329,1921.8-329.9,1921.8z"/>
	<g opacity="0.26">
		<line x1="-334.3" y1="1930.1" x2="-338.3" y2="1930"/>
		<polyline points="-334.3,1930.1 -338.3,1930 -338.3,1925.9 -334.3,1925.9 		"/>
		<path d="M-334.3,1945.2l-12.1-0.1c-0.2,0-0.4-0.2-0.4-0.4v-14.4c0-0.2,0.2-0.4,0.4-0.4h12.1"/>
		<path d="M-334.3,1926.4l-4.8,0c-0.2,0-0.4-0.2-0.4-0.4v-4.2c0-0.2,0.2-0.4,0.4-0.4l4.8,0"/>
		<path d="M-334.4,1921.9l-4.9,0c-1,0-1.8-0.8-1.8-1.8v-1.2c0-1,0.8-1.8,1.8-1.8l4.8,0"/>
	</g>
	<path fill="#58595B" d="M-93.4,1928.4h7.9c0.5,0,0.9-0.4,0.9-0.9v-3.1c0-0.5-0.4-0.9-0.9-0.9h-7.9c-0.5,0-0.9,0.4-0.9,0.9v3.1
		C-94.4,1928-94,1928.4-93.4,1928.4z"/>
	<path fill="#E6E7E8" d="M-94.3,1920.6l-104.3,4.2c0,0-2.1,0.9,2.1,1.3l83.6,0.9l19-4.9L-94.3,1920.6z"/>
	<path fill="#939598" d="M-343.9,1944.1c0,0-3.8-0.4-6.3,2.1l-3.5,3.4c0,0-1.2,1.2-0.6,3.8l3,8c0,0,0.3,2.1,3.7,3
		c0.2,0,0.4,0.1,0.6,0.1l54.6,1.9c0.1,0,0.2,0,0.3,0c0.7-0.1,3.7-0.2,6.5,2.2c0.1,0.1,0.2,0.1,0.3,0.2l51.9,31.3
		c0.4,0.2,0.8,0.4,1.2,0.4l51.6,0.9c0.5,0,0.9-0.1,1.3-0.3l54.8-32.5c0.1,0,0.1-0.1,0.1-0.1c0.4-0.2,2.7-1.3,5.4-1.3l53.2-1.5
		c0,0,2.3,0,3.9-0.6c0.6-0.2,1.1-0.7,1.4-1.3c0.6-1.4,1.9-4.3,2.7-6.3c0,0,2.9-5.3-4.5-9.5c-0.1-0.1-0.2-0.1-0.4-0.2
		c-0.7-0.3-2.9-1-5.3-0.9l-47.3,1c0,0-3.4,0.1-7.1,1.3c-0.1,0-0.9,0.3-1,0.4c0,0-36.3,11.3-36.3,11.3s-9.1,3-14.6-0.2
		c0,0-3.4-1.5-5.5-1.5l-52.8-0.2c0,0-2.9-0.1-5.6,1.5c0,0-4.3,2-8.5,1l-41.4-12.5c-0.1,0-0.2-0.1-0.4-0.1c-1-0.5-6.3-2.9-9.7-2.8
		L-343.9,1944.1z"/>
	<polygon fill="#E6E7E8" points="-235.2,1959.2 -224.2,1946.1 -187.6,1946.2 -176.2,1959.6 	"/>
	<path opacity="0.41" fill="#F1F2F2" d="M-57.6,1952.3l-57.9,1.1c-4.4-0.4-11.2,2.1-11.2,2.1l-37.2,13.9c-5.9,3.4-15.4,4-15.4,4
		l-50.5-0.6c-6.5,0-12.3-2.3-12.3-2.3l-42-15.8c-9.3-3.2-16.7-3.6-16.7-3.6l-53.2-0.5c0,0,0.1-0.6,1.2-1.7l3.4-3.2
		c0,0,1.3-1.3,2.2-1.4s3-0.3,3-0.3l46.4,1.8c0,0,4.6,0.3,9.8,2.7l40.7,12.6c0,0,4,1.8,9.7-0.7c0,0,2.9-1.7,4.6-1.5l57.1,0.8
		c0,0,1.4,0,4.4,1.9c0,0,3.5,1.2,7.5,0.3l42.3-12.7c0,0,2.9-1.6,9.7-1.3l44.6-1C-67.8,1946.8-60.4,1946-57.6,1952.3z"/>
	<path fill="#E6E7E8" d="M-346.9,1964.7l5.1,7.4c0,0,0.1,0.1,0.1,0.1l41.1,1.6c0,0,0.1,0,0.1,0l11.7-7.2c0.1-0.1,0.1-0.3-0.1-0.3
		l-4-0.3c0,0,0,0,0,0l-53.9-1.5C-346.8,1964.4-346.9,1964.6-346.9,1964.7z"/>
	<path fill="#E6E7E8" d="M-122,1967.3l11.1,8.1c0,0,0,0,0.1,0l40.4-1.1c0,0,0.1,0,0.1,0l7.2-8.9c0.1-0.1,0-0.2-0.1-0.2l-56.2,1.8
		l-2.5,0.1C-122.1,1967.1-122.1,1967.2-122,1967.3z"/>
	<path fill="#BCBEC0" d="M-291.1,1968l15.5,11.1l-37.3,102.3c0,0-0.9,3.1,2.4,4.9c0,0,4.3,2.4,7-2.1l29.1-72.9c0,0,2.3-8,8.3-10.8
		l19.1-8.8l-9.7-6.3l-20,13.7l8.7-20.4l-20.5-12.1L-291.1,1968z"/>
	<path opacity="0.48" fill="#231F20" d="M-276.9,1998.8l8.7-20.4l-20.5-12.1l-2.4,1.6l15.5,11.1l-37.3,102.3c0,0-0.9,3.1,2.4,4.9"/>
	<path fill="#BCBEC0" d="M-119,1969.5l-15.8,10.2l34.5,101.2c0,0,1.1,4.6-2.6,6.3c0,0-4.5,1.5-7-3.8l-26.4-69.7
		c0,0-3.4-8.8-10.3-12.3l-17.8-9.3l10.4-6.2l19.3,13.2l-8.2-19.8l20.3-12.2L-119,1969.5z"/>
	<path fill="#BCBEC0" d="M-87.2,1919.7c0,0,18.4-3.1,25.9-2.8l76.9-0.7c0,0,3.3-0.3,2.6,1.1l-82.5,12.4c0,0-8.4,0.9-12.3-1.3
		l-11.9-4.9L-87.2,1919.7z"/>
	<path fill="#808285" d="M-94.1,1924h9.3c1,0,1.8-0.8,1.8-1.8v-1.1c0-1-0.8-1.8-1.8-1.8h-9.3c-1,0-1.8,0.8-1.8,1.8v1.1
		C-95.9,1923.2-95.1,1924-94.1,1924z"/>
	<polygon fill="#FFFFFF" points="-194.3,1946.2 -189.5,1946.2 -180.9,1959.5 -189.6,1959.4 	"/>
	<polygon fill="#FFFFFF" points="-217.4,1946.1 -222.2,1946.1 -230.5,1958.9 -222.1,1959 	"/>
	<g opacity="0.26">
		<line x1="-89.9" y1="1932.2" x2="-85.8" y2="1932.1"/>
		<polyline points="-89.9,1932.2 -85.8,1932.1 -85.8,1928 -89.9,1928 		"/>
		<path d="M-90,1947.3l12.3-0.1c0.2,0,0.4-0.2,0.4-0.4v-14.4c0-0.2-0.2-0.4-0.4-0.4H-90"/>
		<path d="M-89.9,1928.5l4.9,0c0.2,0,0.4-0.2,0.4-0.4v-4.2c0-0.2-0.2-0.4-0.4-0.4l-4.8,0"/>
		<path d="M-89.8,1924l4.9,0c1,0,1.8-0.8,1.8-1.8v-1.2c0-1-0.8-1.8-1.8-1.8l-4.9,0"/>
	</g>
	<polyline opacity="0.74" fill="#FFFFFF" points="-326.9,1965 -347.1,1964.4 -341.8,1972.1 -322.8,1972.8 	"/>
	<polyline opacity="0.74" fill="#FFFFFF" points="-83.4,1965.9 -63,1965.2 -70.4,1974.3 -88,1974.8 	"/>
	<path opacity="0.48" fill="#231F20" d="M-134.5,1998.8l-8.2-19.8l20.3-12.2l3.4,2.5l-15.8,10.2l34.5,101.2c0,0,1.1,4.6-2.6,6.3"/>
</g>
</svg>
